<?xml version="1.0" encoding="UTF-8"?>
<!DOCTYPE svg PUBLIC "-//W3C//DTD SVG 1.1//EN" "http://www.w3.org/Graphics/SVG/1.1/DTD/svg11.dtd">
<!-- Creator: CorelDRAW 2020 (64-Bit) -->
<svg xmlns="http://www.w3.org/2000/svg" xml:space="preserve" width="1.83341in" height="0.31385in" version="1.1" style="shape-rendering:geometricPrecision; text-rendering:geometricPrecision; image-rendering:optimizeQuality; fill-rule:evenodd; clip-rule:evenodd"
viewBox="0 0 1833.41 313.85"
 xmlns:xlink="http://www.w3.org/1999/xlink"
 xmlns:xodm="http://www.corel.com/coreldraw/odm/2003">
 <defs>
  <style type="text/css">
   <![CDATA[
    .fil1 {fill:#FEFEFE}
    .fil0 {fill:#261EBD}
    .fil2 {fill:#0F0F0F;fill-rule:nonzero}
   ]]>
  </style>
 </defs>
 <g id="Layer_x0020_1">
  <metadata id="CorelCorpID_0Corel-Layer"/>
  <g id="_2410490418272">
   <g>
    <polygon class="fil0" points="-0,0 279.97,0 279.97,263.88 222.56,311.6 -0,311.6 "/>
    <path class="fil1" d="M66.07 49.09l110.87 -0.69 38.77 37.99 -0.17 111.56 -102.17 0.19 -0.15 78.25 -48.35 -47.66 1.2 -179.65zm115.71 47.93l19.13 0.17 0.17 75.73 -19.34 -19 0.04 -56.9zm-67.56 67.83l57.89 0 17.92 19.34 -75.81 0 0 -19.34zm-0.65 -68.04l53.45 0 0 53.62 -53.45 0 0 -53.62zm58.2 -33.16l-79.99 0.26 18.56 19.39 80.35 -0.05 -18.92 -19.6zm-91.62 10.57l0.26 147.59 19.39 20.16 -0.05 -149.12 -19.61 -18.63z"/>
   </g>
   <path class="fil2" d="M357.63 245.33l0 -239.06 95.82 0c15.71,0 29.48,3.07 41.32,9.22 11.84,6.15 21.12,14.69 27.83,25.61 6.72,10.93 10.07,23.56 10.07,37.91 0,14.11 -3.36,26.64 -10.07,37.56 -6.72,10.93 -16.06,19.47 -28,25.61 -11.95,6.15 -25.67,9.22 -41.15,9.22l-54.49 0 0 93.92 -41.32 0zm41.32 -128.41l50.39 0c12.75,0 22.88,-3.41 30.4,-10.24 7.51,-6.83 11.27,-15.94 11.27,-27.32 0,-11.39 -3.76,-20.44 -11.27,-27.15 -7.52,-6.72 -17.65,-10.07 -30.4,-10.07l-50.39 0 0 74.79zm211 126.93c-12.52,0 -23.62,-2.28 -33.3,-6.83 -9.68,-4.55 -17.25,-10.87 -22.71,-18.95 -5.46,-8.08 -8.2,-17.36 -8.2,-27.83 0,-16.62 6.32,-29.66 18.95,-39.1 12.64,-9.45 30,-14.18 52.08,-14.18 16.39,0 31.76,2.96 46.1,8.88l0 -16.39c0,-11.61 -3.41,-20.32 -10.24,-26.13 -6.83,-5.81 -16.96,-8.71 -30.39,-8.71 -7.74,0 -15.94,1.2 -24.59,3.59 -8.65,2.39 -18.44,6.09 -29.37,11.1l-14.35 -29.03c13.43,-6.38 26.18,-11.04 38.25,-14 12.07,-2.96 24.14,-4.44 36.2,-4.44 23,0 40.87,5.52 53.61,16.56 12.76,11.04 19.13,26.7 19.13,46.96l0 115.43 -38.25 0 0 -14c-7.51,5.92 -15.65,10.24 -24.41,12.98 -8.77,2.73 -18.27,4.1 -28.52,4.1zm-26.98 -54.3c0,7.74 3.35,13.94 10.07,18.61 6.72,4.67 15.54,7 26.47,7 8.43,0 16.28,-1.14 23.57,-3.42 7.29,-2.28 13.89,-6.03 19.8,-11.27l0 -28.01c-6.37,-3.19 -12.92,-5.52 -19.63,-7 -6.72,-1.48 -14.17,-2.22 -22.37,-2.22 -11.61,0 -20.83,2.33 -27.66,7 -6.83,4.67 -10.24,11.1 -10.24,19.3zm229.13 124.32c-13.2,0 -25.9,-1.48 -38.08,-4.44 -12.18,-2.96 -23.39,-7.06 -33.64,-12.3l14.34 -30.4c10.02,5.01 19.58,8.71 28.69,11.1 9.11,2.39 18.33,3.58 27.66,3.58 14.8,0 25.96,-3.3 33.47,-9.9 7.51,-6.6 11.27,-16.39 11.27,-29.37l0 -17.76c-15.03,11.61 -31.99,17.42 -50.89,17.42 -16.17,0 -30.96,-3.93 -44.4,-11.78 -13.43,-7.85 -24.07,-18.67 -31.93,-32.44 -7.85,-13.78 -11.78,-28.86 -11.78,-45.26 0,-16.85 3.98,-32.04 11.96,-45.59 7.97,-13.55 18.67,-24.25 32.1,-32.11 13.43,-7.85 28.57,-11.89 45.42,-12.12 9.11,0.23 17.98,1.71 26.63,4.44 8.66,2.74 16.51,6.72 23.57,11.96l0 -13.32 38.59 -0.34 0 176.91c-0.23,23.22 -7.46,40.98 -21.69,53.28 -14.23,12.3 -34.66,18.44 -61.3,18.44zm-1.7 -105.53c9.33,0.23 17.93,-1.31 25.78,-4.61 7.85,-3.3 14.4,-8.03 19.64,-14.17l0 -74.79c-5.24,-5.69 -11.84,-10.24 -19.81,-13.66 -7.97,-3.41 -16.39,-5.01 -25.28,-4.78 -10.7,-0.22 -20.2,2.17 -28.52,7.18 -8.31,5.01 -14.91,11.72 -19.81,20.15 -4.9,8.42 -7.34,17.87 -7.34,28.34 0,10.7 2.44,20.32 7.34,28.86 4.9,8.54 11.56,15.31 19.98,20.32 8.43,5.01 17.76,7.4 28.01,7.17zm193.95 35.52c-17.3,0 -32.96,-3.99 -46.96,-11.96 -14,-7.97 -25.1,-18.84 -33.3,-32.61 -8.2,-13.77 -12.3,-29.2 -12.3,-46.27 0,-16.85 3.93,-32.11 11.78,-45.77 7.86,-13.66 18.5,-24.53 31.93,-32.61 13.43,-8.08 28.46,-12.12 45.08,-12.12 16.39,0 31.02,4.04 43.88,12.12 12.87,8.08 23.05,19.13 30.57,33.13 7.51,14 11.27,29.88 11.27,47.64l0 10.59 -135.24 0c2.05,8.65 5.58,16.33 10.59,23.05 5.01,6.72 11.39,12.01 19.13,15.88 7.74,3.87 16.28,5.8 25.61,5.8 8.2,0 15.99,-1.25 23.39,-3.76 7.4,-2.5 13.61,-6.15 18.61,-10.93l25.28 23.91c-10.48,8.19 -21.24,14.23 -32.28,18.09 -11.04,3.87 -23.4,5.81 -37.06,5.81zm-53.28 -106.56l96.65 0c-1.59,-8.2 -4.72,-15.48 -9.39,-21.86 -4.67,-6.37 -10.3,-11.38 -16.91,-15.02 -6.6,-3.65 -13.89,-5.46 -21.85,-5.46 -7.97,0 -15.31,1.76 -22.03,5.3 -6.72,3.53 -12.41,8.48 -17.07,14.85 -4.67,6.37 -7.8,13.77 -9.4,22.2zm215.81 106.9c-15.48,0 -29.94,-2.17 -43.37,-6.49 -13.43,-4.33 -25.05,-10.59 -34.83,-18.78l20.15 -25.96c9.56,7.06 19.07,12.41 28.52,16.06 9.45,3.64 18.95,5.46 28.52,5.46 11.61,0 21,-2.17 28.18,-6.49 7.17,-4.33 10.76,-9.9 10.76,-16.73 0,-5.69 -2.05,-10.19 -6.15,-13.49 -4.1,-3.3 -10.59,-5.63 -19.46,-7l-32.45 -4.44c-17.53,-2.73 -30.74,-8.31 -39.61,-16.73 -8.88,-8.43 -13.32,-19.58 -13.32,-33.47 0,-10.93 2.9,-20.43 8.71,-28.52 5.81,-8.08 14,-14.35 24.59,-18.79 10.59,-4.44 23.05,-6.66 37.39,-6.66 12.75,0 25.04,1.82 36.89,5.46 11.84,3.65 23.22,9.22 34.15,16.74l-19.46 25.61c-9.56,-6.15 -18.84,-10.64 -27.83,-13.49 -8.99,-2.84 -18.04,-4.27 -27.15,-4.27 -9.56,0 -17.31,1.94 -23.22,5.81 -5.92,3.87 -8.88,8.99 -8.88,15.37 0,5.92 2.05,10.41 6.15,13.49 4.1,3.07 10.93,5.3 20.49,6.66l32.79 4.78c17.3,2.5 30.5,7.96 39.61,16.39 9.11,8.43 13.66,19.47 13.66,33.13 0,10.7 -3.3,20.32 -9.9,28.86 -6.6,8.54 -15.48,15.25 -26.64,20.15 -11.16,4.89 -23.91,7.34 -38.25,7.34zm160.15 -0.34c-17.98,0 -31.65,-4.16 -40.98,-12.46 -9.33,-8.31 -14,-20.44 -14,-36.37l0 -96.99 -36.88 0 0 -32.79 36.88 0 0 -44.74 38.94 -8.88 0 53.62 23.19 0 0 32.79 -23.19 0 0 88.45c0,8.65 1.93,14.8 5.8,18.44 3.87,3.64 10.36,5.46 19.47,5.46 4.56,0 8.71,-0.34 12.46,-1.02 3.76,-0.69 7.91,-1.71 12.46,-3.08l0 32.45c-4.78,1.59 -10.35,2.84 -16.73,3.75 -6.38,0.91 -12.18,1.37 -17.42,1.37zm45.05 -3.07l0 -175.54 38.93 0 0 21.51c5.69,-8.19 12.52,-14.45 20.49,-18.78 7.97,-4.33 17.07,-6.49 27.32,-6.49 7.74,0 13.78,1.03 18.1,3.07l0 34.83c-3.19,-1.36 -6.61,-2.39 -10.25,-3.07 -3.64,-0.68 -7.4,-1.02 -11.27,-1.02 -9.56,0 -18.21,2.5 -25.96,7.52 -7.74,5.01 -13.89,12.3 -18.44,21.86l0 116.11 -38.93 0zm166.97 3.07c-12.52,0 -23.63,-2.28 -33.3,-6.83 -9.68,-4.55 -17.25,-10.87 -22.71,-18.95 -5.46,-8.08 -8.2,-17.36 -8.2,-27.83 0,-16.62 6.32,-29.66 18.95,-39.1 12.64,-9.45 30,-14.18 52.08,-14.18 16.4,0 31.76,2.96 46.11,8.88l0 -16.39c0,-11.61 -3.41,-20.32 -10.25,-26.13 -6.83,-5.81 -16.96,-8.71 -30.39,-8.71 -7.74,0 -15.94,1.2 -24.59,3.59 -8.65,2.39 -18.44,6.09 -29.37,11.1l-14.35 -29.03c13.43,-6.38 26.18,-11.04 38.25,-14 12.07,-2.96 24.14,-4.44 36.2,-4.44 23,0 40.87,5.52 53.61,16.56 12.76,11.04 19.13,26.7 19.13,46.96l0 115.43 -38.25 0 0 -14c-7.51,5.92 -15.65,10.24 -24.42,12.98 -8.77,2.73 -18.27,4.1 -28.52,4.1zm-26.98 -54.3c0,7.74 3.35,13.94 10.07,18.61 6.72,4.67 15.54,7 26.46,7 8.43,0 16.28,-1.14 23.57,-3.42 7.29,-2.28 13.89,-6.03 19.81,-11.27l0 -28.01c-6.37,-3.19 -12.92,-5.52 -19.64,-7 -6.72,-1.48 -14.17,-2.22 -22.37,-2.22 -11.61,0 -20.83,2.33 -27.66,7 -6.83,4.67 -10.24,11.1 -10.24,19.3zm141.7 80.98l0.34 -204.95 38.25 -0.34 0 16.05c14.57,-12.3 31.99,-18.44 52.25,-18.44 16.62,0 31.59,4.04 44.91,12.12 13.32,8.08 23.96,18.9 31.93,32.44 7.97,13.55 11.96,28.86 11.96,45.93 0,16.62 -3.98,31.82 -11.96,45.59 -7.96,13.78 -18.72,24.65 -32.27,32.62 -13.55,7.96 -28.74,11.95 -45.59,11.95 -9.34,0 -18.27,-1.43 -26.81,-4.27 -8.54,-2.84 -16.56,-6.89 -24.07,-12.12l0 43.41 -38.93 0zm85.04 -60.83c10.7,0 20.27,-2.45 28.69,-7.34 8.43,-4.9 15.14,-11.61 20.15,-20.15 5.01,-8.54 7.51,-18.16 7.51,-28.86 0,-10.93 -2.44,-20.72 -7.34,-29.37 -4.9,-8.65 -11.61,-15.43 -20.15,-20.32 -8.54,-4.89 -18.15,-7.34 -28.86,-7.34 -9.33,0 -17.93,1.71 -25.78,5.13 -7.85,3.41 -14.63,8.2 -20.32,14.34l0 74.79c5.46,5.92 12.24,10.65 20.32,14.17 8.08,3.53 16.68,5.18 25.78,4.95z"/>
  </g>
 </g>
</svg>
