<?xml version="1.0" encoding="UTF-8"?>
<!DOCTYPE svg PUBLIC "-//W3C//DTD SVG 1.1//EN" "http://www.w3.org/Graphics/SVG/1.1/DTD/svg11.dtd">
<!-- Creator: CorelDRAW 2020 (64-Bit) -->
<svg xmlns="http://www.w3.org/2000/svg" xml:space="preserve" width="1.03073in" height="0.176441in" version="1.1" style="shape-rendering:geometricPrecision; text-rendering:geometricPrecision; image-rendering:optimizeQuality; fill-rule:evenodd; clip-rule:evenodd"
viewBox="0 0 300.9 51.51"
 xmlns:xlink="http://www.w3.org/1999/xlink"
 xmlns:xodm="http://www.corel.com/coreldraw/odm/2003">
 <defs>
  <style type="text/css">
   <![CDATA[
    .fil1 {fill:#FEFEFE}
    .fil0 {fill:#261EBD}
    .fil2 {fill:#261EBD;fill-rule:nonzero}
   ]]>
  </style>
 </defs>
 <g id="Layer_x0020_1">
  <metadata id="CorelCorpID_0Corel-Layer"/>
  <g id="_2410490429840">
   <g>
    <polygon class="fil0" points="-0,0 45.95,0 45.95,43.31 36.53,51.14 -0,51.14 "/>
    <path class="fil1" d="M10.84 8.06l18.2 -0.11 6.36 6.24 -0.03 18.31 -16.77 0.03 -0.03 12.84 -7.94 -7.82 0.2 -29.48zm18.99 7.87l3.14 0.03 0.03 12.43 -3.17 -3.12 0.01 -9.34zm-11.09 11.13l9.5 0 2.94 3.17 -12.44 0 0 -3.17zm-0.11 -11.17l8.77 0 0 8.8 -8.77 0 0 -8.8zm9.55 -5.44l-13.13 0.04 3.04 3.18 13.19 -0.01 -3.1 -3.22zm-15.04 1.73l0.04 24.22 3.18 3.31 -0.01 -24.47 -3.22 -3.06z"/>
   </g>
   <path class="fil2" d="M58.7 40.26l0 -39.23 15.73 0c2.58,0 4.84,0.5 6.78,1.51 1.94,1.01 3.47,2.41 4.57,4.2 1.1,1.79 1.65,3.87 1.65,6.22 0,2.32 -0.55,4.37 -1.65,6.17 -1.1,1.79 -2.64,3.2 -4.6,4.2 -1.96,1.01 -4.21,1.51 -6.75,1.51l-8.94 0 0 15.41 -6.78 0zm6.78 -21.08l8.27 0c2.09,0 3.75,-0.56 4.99,-1.68 1.23,-1.12 1.85,-2.61 1.85,-4.48 0,-1.87 -0.62,-3.35 -1.85,-4.46 -1.23,-1.1 -2.9,-1.65 -4.99,-1.65l-8.27 0 0 12.27zm34.63 20.83c-2.06,0 -3.88,-0.37 -5.47,-1.12 -1.59,-0.75 -2.83,-1.78 -3.73,-3.11 -0.9,-1.33 -1.35,-2.85 -1.35,-4.57 0,-2.73 1.04,-4.87 3.11,-6.42 2.07,-1.55 4.92,-2.33 8.55,-2.33 2.69,0 5.21,0.49 7.57,1.46l0 -2.69c0,-1.91 -0.56,-3.34 -1.68,-4.29 -1.12,-0.95 -2.78,-1.43 -4.99,-1.43 -1.27,0 -2.61,0.2 -4.04,0.59 -1.42,0.39 -3.03,1 -4.82,1.82l-2.35 -4.76c2.2,-1.05 4.3,-1.81 6.28,-2.3 1.98,-0.49 3.96,-0.73 5.94,-0.73 3.77,0 6.71,0.91 8.8,2.72 2.09,1.81 3.14,4.38 3.14,7.71l0 18.95 -6.28 0 0 -2.3c-1.23,0.97 -2.57,1.68 -4.01,2.13 -1.44,0.45 -3,0.67 -4.68,0.67zm-4.43 -8.91c0,1.27 0.55,2.29 1.65,3.05 1.1,0.77 2.55,1.15 4.34,1.15 1.38,0 2.67,-0.19 3.87,-0.56 1.2,-0.37 2.28,-0.99 3.25,-1.85l0 -4.6c-1.05,-0.52 -2.12,-0.91 -3.22,-1.15 -1.1,-0.24 -2.33,-0.36 -3.67,-0.36 -1.91,0 -3.42,0.38 -4.54,1.15 -1.12,0.77 -1.68,1.82 -1.68,3.17zm37.61 20.4c-2.17,0 -4.25,-0.24 -6.25,-0.73 -2,-0.49 -3.84,-1.16 -5.52,-2.02l2.35 -4.99c1.64,0.82 3.21,1.43 4.71,1.82 1.49,0.39 3.01,0.59 4.54,0.59 2.43,0 4.26,-0.54 5.49,-1.63 1.23,-1.08 1.85,-2.69 1.85,-4.82l0 -2.91c-2.47,1.91 -5.25,2.86 -8.35,2.86 -2.65,0 -5.08,-0.64 -7.29,-1.93 -2.2,-1.29 -3.95,-3.06 -5.24,-5.32 -1.29,-2.26 -1.93,-4.74 -1.93,-7.43 0,-2.77 0.65,-5.26 1.96,-7.48 1.31,-2.22 3.06,-3.98 5.27,-5.27 2.2,-1.29 4.69,-1.95 7.45,-1.99 1.49,0.04 2.95,0.28 4.37,0.73 1.42,0.45 2.71,1.1 3.87,1.96l0 -2.19 6.33 -0.06 0 29.03c-0.04,3.81 -1.22,6.73 -3.56,8.74 -2.34,2.02 -5.69,3.03 -10.06,3.03zm-0.28 -17.32c1.53,0.04 2.94,-0.21 4.23,-0.76 1.29,-0.54 2.36,-1.32 3.22,-2.33l0 -12.27c-0.86,-0.93 -1.94,-1.68 -3.25,-2.24 -1.31,-0.56 -2.69,-0.82 -4.15,-0.78 -1.76,-0.04 -3.32,0.36 -4.68,1.18 -1.36,0.82 -2.45,1.93 -3.25,3.31 -0.8,1.38 -1.2,2.93 -1.2,4.65 0,1.76 0.4,3.34 1.2,4.74 0.8,1.4 1.9,2.51 3.28,3.34 1.38,0.82 2.91,1.21 4.6,1.18zm31.83 5.83c-2.84,0 -5.41,-0.65 -7.71,-1.96 -2.3,-1.31 -4.12,-3.09 -5.47,-5.35 -1.35,-2.26 -2.02,-4.79 -2.02,-7.59 0,-2.77 0.64,-5.27 1.93,-7.51 1.29,-2.24 3.04,-4.03 5.24,-5.35 2.2,-1.33 4.67,-1.99 7.4,-1.99 2.69,0 5.09,0.66 7.2,1.99 2.11,1.33 3.78,3.14 5.02,5.44 1.23,2.3 1.85,4.9 1.85,7.82l0 1.74 -22.2 0c0.34,1.42 0.92,2.68 1.74,3.78 0.82,1.1 1.87,1.97 3.14,2.61 1.27,0.64 2.67,0.95 4.2,0.95 1.34,0 2.63,-0.21 3.84,-0.62 1.21,-0.41 2.23,-1.01 3.06,-1.79l4.15 3.92c-1.72,1.34 -3.48,2.34 -5.3,2.97 -1.81,0.64 -3.84,0.95 -6.08,0.95zm-8.74 -17.49l15.86 0c-0.26,-1.34 -0.78,-2.54 -1.54,-3.59 -0.77,-1.05 -1.69,-1.87 -2.77,-2.47 -1.08,-0.6 -2.28,-0.9 -3.59,-0.9 -1.31,0 -2.51,0.29 -3.62,0.87 -1.1,0.58 -2.04,1.39 -2.8,2.44 -0.77,1.05 -1.28,2.26 -1.54,3.64zm35.42 17.54c-2.54,0 -4.91,-0.36 -7.12,-1.07 -2.2,-0.71 -4.11,-1.74 -5.72,-3.08l3.31 -4.26c1.57,1.16 3.13,2.04 4.68,2.64 1.55,0.6 3.11,0.9 4.68,0.9 1.91,0 3.45,-0.36 4.62,-1.07 1.18,-0.71 1.77,-1.63 1.77,-2.75 0,-0.93 -0.34,-1.67 -1.01,-2.21 -0.67,-0.54 -1.74,-0.93 -3.2,-1.15l-5.32 -0.73c-2.88,-0.45 -5.04,-1.36 -6.5,-2.75 -1.46,-1.38 -2.18,-3.21 -2.18,-5.49 0,-1.79 0.48,-3.35 1.43,-4.68 0.95,-1.33 2.3,-2.35 4.04,-3.08 1.74,-0.73 3.78,-1.09 6.14,-1.09 2.09,0 4.11,0.3 6.05,0.9 1.94,0.6 3.81,1.51 5.61,2.75l-3.2 4.2c-1.57,-1.01 -3.09,-1.75 -4.57,-2.21 -1.48,-0.47 -2.96,-0.7 -4.46,-0.7 -1.57,0 -2.84,0.32 -3.81,0.95 -0.97,0.64 -1.46,1.48 -1.46,2.52 0,0.97 0.34,1.71 1.01,2.21 0.67,0.5 1.79,0.87 3.36,1.09l5.38 0.78c2.84,0.41 5.01,1.31 6.5,2.69 1.5,1.38 2.24,3.2 2.24,5.44 0,1.76 -0.54,3.34 -1.63,4.74 -1.08,1.4 -2.54,2.5 -4.37,3.31 -1.83,0.8 -3.92,1.21 -6.28,1.21zm26.28 -0.06c-2.95,0 -5.19,-0.68 -6.73,-2.05 -1.53,-1.36 -2.3,-3.35 -2.3,-5.97l0 -15.92 -6.05 0 0 -5.38 6.05 0 0 -7.34 6.39 -1.46 0 8.8 3.8 0 0 5.38 -3.8 0 0 14.52c0,1.42 0.32,2.43 0.95,3.03 0.64,0.6 1.7,0.9 3.19,0.9 0.75,0 1.43,-0.06 2.05,-0.17 0.62,-0.11 1.3,-0.28 2.05,-0.5l0 5.32c-0.78,0.26 -1.7,0.47 -2.75,0.62 -1.05,0.15 -2,0.22 -2.86,0.22zm7.39 -0.5l0 -28.81 6.39 0 0 3.53c0.93,-1.34 2.06,-2.37 3.36,-3.08 1.31,-0.71 2.8,-1.07 4.48,-1.07 1.27,0 2.26,0.17 2.97,0.5l0 5.72c-0.52,-0.22 -1.08,-0.39 -1.68,-0.5 -0.6,-0.11 -1.21,-0.17 -1.85,-0.17 -1.57,0 -2.99,0.41 -4.26,1.23 -1.27,0.82 -2.28,2.02 -3.03,3.59l0 19.06 -6.39 0zm27.4 0.5c-2.06,0 -3.88,-0.37 -5.47,-1.12 -1.59,-0.75 -2.83,-1.78 -3.73,-3.11 -0.9,-1.33 -1.34,-2.85 -1.34,-4.57 0,-2.73 1.04,-4.87 3.11,-6.42 2.07,-1.55 4.92,-2.33 8.55,-2.33 2.69,0 5.21,0.49 7.57,1.46l0 -2.69c0,-1.91 -0.56,-3.34 -1.68,-4.29 -1.12,-0.95 -2.78,-1.43 -4.99,-1.43 -1.27,0 -2.61,0.2 -4.03,0.59 -1.42,0.39 -3.03,1 -4.82,1.82l-2.35 -4.76c2.2,-1.05 4.3,-1.81 6.28,-2.3 1.98,-0.49 3.96,-0.73 5.94,-0.73 3.77,0 6.71,0.91 8.8,2.72 2.09,1.81 3.14,4.38 3.14,7.71l0 18.95 -6.28 0 0 -2.3c-1.23,0.97 -2.57,1.68 -4.01,2.13 -1.44,0.45 -3,0.67 -4.68,0.67zm-4.43 -8.91c0,1.27 0.55,2.29 1.65,3.05 1.1,0.77 2.55,1.15 4.34,1.15 1.38,0 2.67,-0.19 3.87,-0.56 1.2,-0.37 2.28,-0.99 3.25,-1.85l0 -4.6c-1.05,-0.52 -2.12,-0.91 -3.22,-1.15 -1.1,-0.24 -2.33,-0.36 -3.67,-0.36 -1.9,0 -3.42,0.38 -4.54,1.15 -1.12,0.77 -1.68,1.82 -1.68,3.17zm23.26 13.29l0.06 -33.64 6.28 -0.06 0 2.63c2.39,-2.02 5.25,-3.03 8.58,-3.03 2.73,0 5.18,0.66 7.37,1.99 2.19,1.33 3.93,3.1 5.24,5.32 1.31,2.22 1.96,4.74 1.96,7.54 0,2.73 -0.65,5.22 -1.96,7.48 -1.31,2.26 -3.07,4.04 -5.3,5.35 -2.22,1.31 -4.72,1.96 -7.48,1.96 -1.53,0 -3,-0.23 -4.4,-0.7 -1.4,-0.47 -2.72,-1.13 -3.95,-1.99l0 7.12 -6.39 0zm13.96 -9.98c1.76,0 3.33,-0.4 4.71,-1.2 1.38,-0.8 2.48,-1.91 3.31,-3.31 0.82,-1.4 1.23,-2.98 1.23,-4.74 0,-1.79 -0.4,-3.4 -1.21,-4.82 -0.8,-1.42 -1.91,-2.53 -3.31,-3.33 -1.4,-0.8 -2.98,-1.21 -4.74,-1.21 -1.53,0 -2.94,0.28 -4.23,0.84 -1.29,0.56 -2.4,1.34 -3.33,2.35l0 12.27c0.9,0.97 2.01,1.75 3.33,2.33 1.33,0.58 2.74,0.85 4.23,0.81z"/>
  </g>
 </g>
</svg>
