<?xml version="1.0" encoding="UTF-8"?>
<!DOCTYPE svg PUBLIC "-//W3C//DTD SVG 1.1//EN" "http://www.w3.org/Graphics/SVG/1.1/DTD/svg11.dtd">
<!-- Creator: CorelDRAW 2020 (64-Bit) -->
<svg xmlns="http://www.w3.org/2000/svg" xml:space="preserve" width="1.03073in" height="0.176441in" version="1.1" style="shape-rendering:geometricPrecision; text-rendering:geometricPrecision; image-rendering:optimizeQuality; fill-rule:evenodd; clip-rule:evenodd"
viewBox="0 0 723.09 123.78"
 xmlns:xlink="http://www.w3.org/1999/xlink"
 xmlns:xodm="http://www.corel.com/coreldraw/odm/2003">
 <defs>
  <style type="text/css">
   <![CDATA[
    .fil0 {fill:#FEFEFE}
    .fil1 {fill:#261EBD}
    .fil2 {fill:#FEFEFE;fill-rule:nonzero}
   ]]>
  </style>
 </defs>
 <g id="Layer_x0020_1">
  <metadata id="CorelCorpID_0Corel-Layer"/>
  <g id="_2410495845984">
   <g>
    <polygon class="fil0" points="-0,0 110.42,0 110.42,104.07 87.78,122.89 -0,122.89 "/>
    <path class="fil1" d="M26.06 19.36l43.73 -0.27 15.29 14.98 -0.07 44 -40.29 0.08 -0.06 30.86 -19.07 -18.8 0.48 -70.85zm45.64 18.9l7.54 0.07 0.07 29.86 -7.63 -7.49 0.02 -22.44zm-26.65 26.75l22.83 0 7.07 7.63 -29.9 0 0 -7.63zm-0.26 -26.83l21.08 0 0 21.15 -21.08 0 0 -21.15zm22.95 -13.08l-31.55 0.1 7.32 7.65 31.69 -0.02 -7.46 -7.73zm-36.13 4.17l0.1 58.21 7.65 7.95 -0.02 -58.81 -7.73 -7.35z"/>
   </g>
   <path class="fil2" d="M141.05 96.75l0 -94.28 37.79 0c6.19,0 11.63,1.21 16.3,3.64 4.67,2.42 8.33,5.79 10.98,10.1 2.65,4.31 3.97,9.29 3.97,14.95 0,5.57 -1.32,10.5 -3.97,14.81 -2.65,4.31 -6.33,7.68 -11.04,10.1 -4.71,2.42 -10.13,3.64 -16.23,3.64l-21.49 0 0 37.04 -16.3 0zm16.3 -50.65l19.87 0c5.03,0 9.02,-1.35 11.99,-4.04 2.96,-2.69 4.45,-6.28 4.45,-10.77 0,-4.49 -1.48,-8.06 -4.45,-10.71 -2.96,-2.65 -6.96,-3.97 -11.99,-3.97l-19.87 0 0 29.49zm83.22 50.06c-4.94,0 -9.32,-0.9 -13.13,-2.7 -3.82,-1.8 -6.8,-4.29 -8.96,-7.47 -2.15,-3.19 -3.23,-6.85 -3.23,-10.98 0,-6.55 2.49,-11.69 7.48,-15.42 4.98,-3.73 11.83,-5.59 20.54,-5.59 6.47,0 12.53,1.17 18.18,3.5l0 -6.46c0,-4.58 -1.35,-8.02 -4.04,-10.3 -2.7,-2.29 -6.69,-3.44 -11.99,-3.44 -3.05,0 -6.28,0.47 -9.7,1.41 -3.41,0.94 -7.27,2.4 -11.58,4.38l-5.66 -11.45c5.3,-2.52 10.33,-4.36 15.09,-5.52 4.76,-1.17 9.52,-1.75 14.28,-1.75 9.07,0 16.12,2.18 21.15,6.53 5.03,4.36 7.54,10.53 7.54,18.52l0 45.53 -15.09 0 0 -5.52c-2.96,2.34 -6.18,4.04 -9.63,5.12 -3.46,1.08 -7.21,1.62 -11.25,1.62zm-10.64 -21.42c0,3.05 1.32,5.5 3.97,7.34 2.65,1.84 6.13,2.76 10.44,2.76 3.32,0 6.42,-0.45 9.29,-1.35 2.88,-0.9 5.48,-2.38 7.81,-4.44l0 -11.04c-2.51,-1.26 -5.1,-2.18 -7.74,-2.76 -2.65,-0.59 -5.59,-0.88 -8.82,-0.88 -4.58,0 -8.21,0.92 -10.91,2.76 -2.69,1.84 -4.04,4.38 -4.04,7.61zm90.37 49.03c-5.21,0 -10.21,-0.58 -15.02,-1.75 -4.81,-1.17 -9.23,-2.78 -13.27,-4.85l5.66 -11.99c3.95,1.97 7.72,3.44 11.32,4.38 3.59,0.94 7.23,1.41 10.91,1.41 5.84,0 10.24,-1.3 13.2,-3.91 2.96,-2.6 4.44,-6.47 4.44,-11.58l0 -7c-5.92,4.58 -12.62,6.87 -20.07,6.87 -6.37,0 -12.21,-1.55 -17.51,-4.65 -5.3,-3.1 -9.5,-7.36 -12.59,-12.79 -3.1,-5.43 -4.65,-11.38 -4.65,-17.85 0,-6.65 1.57,-12.64 4.71,-17.98 3.14,-5.34 7.36,-9.56 12.66,-12.66 5.3,-3.1 11.27,-4.69 17.91,-4.78 3.59,0.09 7.1,0.67 10.51,1.75 3.41,1.08 6.51,2.65 9.29,4.71l0 -5.25 15.22 -0.14 0 69.77c-0.09,9.16 -2.94,16.16 -8.55,21.01 -5.61,4.85 -13.67,7.27 -24.18,7.27zm-0.67 -41.62c3.68,0.09 7.07,-0.52 10.17,-1.82 3.1,-1.3 5.68,-3.17 7.74,-5.59l0 -29.5c-2.06,-2.25 -4.67,-4.04 -7.81,-5.39 -3.14,-1.35 -6.47,-1.97 -9.97,-1.89 -4.22,-0.09 -7.97,0.85 -11.25,2.83 -3.28,1.98 -5.88,4.63 -7.81,7.95 -1.93,3.32 -2.9,7.05 -2.9,11.18 0,4.22 0.96,8.02 2.9,11.38 1.93,3.37 4.55,6.04 7.88,8.02 3.32,1.97 7,2.92 11.04,2.83zm76.5 14.01c-6.82,0 -13,-1.57 -18.52,-4.71 -5.52,-3.14 -9.9,-7.43 -13.13,-12.87 -3.23,-5.43 -4.85,-11.51 -4.85,-18.25 0,-6.65 1.55,-12.66 4.65,-18.05 3.1,-5.39 7.3,-9.68 12.59,-12.86 5.3,-3.19 11.22,-4.78 17.78,-4.78 6.47,0 12.24,1.59 17.31,4.78 5.07,3.19 9.09,7.54 12.05,13.07 2.96,5.52 4.45,11.79 4.45,18.79l0 4.18 -53.34 0c0.81,3.41 2.2,6.44 4.17,9.09 1.98,2.65 4.49,4.74 7.54,6.26 3.05,1.53 6.42,2.29 10.1,2.29 3.23,0 6.31,-0.49 9.22,-1.48 2.92,-0.99 5.37,-2.42 7.34,-4.31l9.97 9.43c-4.13,3.23 -8.37,5.61 -12.73,7.14 -4.36,1.53 -9.23,2.29 -14.61,2.29zm-21.01 -42.03l38.12 0c-0.63,-3.23 -1.86,-6.1 -3.7,-8.62 -1.84,-2.51 -4.06,-4.49 -6.67,-5.93 -2.6,-1.44 -5.48,-2.15 -8.62,-2.15 -3.14,0 -6.04,0.7 -8.69,2.09 -2.65,1.39 -4.89,3.34 -6.73,5.86 -1.84,2.52 -3.08,5.43 -3.7,8.76zm85.11 42.16c-6.11,0 -11.81,-0.85 -17.1,-2.56 -5.3,-1.71 -9.88,-4.18 -13.74,-7.41l7.95 -10.24c3.77,2.78 7.52,4.89 11.25,6.33 3.73,1.44 7.48,2.15 11.25,2.15 4.58,0 8.29,-0.85 11.11,-2.56 2.83,-1.71 4.24,-3.91 4.24,-6.6 0,-2.24 -0.81,-4.02 -2.42,-5.32 -1.62,-1.3 -4.17,-2.22 -7.68,-2.76l-12.8 -1.75c-6.91,-1.07 -12.12,-3.28 -15.62,-6.6 -3.5,-3.32 -5.25,-7.72 -5.25,-13.2 0,-4.31 1.14,-8.06 3.43,-11.25 2.29,-3.19 5.52,-5.66 9.7,-7.41 4.18,-1.75 9.09,-2.63 14.75,-2.63 5.03,0 9.88,0.72 14.54,2.16 4.67,1.44 9.16,3.63 13.47,6.6l-7.68 10.1c-3.77,-2.42 -7.43,-4.2 -10.98,-5.32 -3.55,-1.12 -7.12,-1.68 -10.71,-1.68 -3.77,0 -6.82,0.76 -9.16,2.29 -2.34,1.53 -3.5,3.55 -3.5,6.06 0,2.33 0.81,4.11 2.42,5.32 1.62,1.21 4.31,2.09 8.08,2.63l12.93 1.89c6.82,0.99 12.03,3.14 15.62,6.46 3.59,3.32 5.39,7.68 5.39,13.07 0,4.22 -1.3,8.02 -3.91,11.38 -2.6,3.37 -6.11,6.02 -10.51,7.95 -4.4,1.93 -9.43,2.9 -15.09,2.9zm63.16 -0.14c-7.09,0 -12.48,-1.64 -16.16,-4.92 -3.68,-3.28 -5.52,-8.06 -5.52,-14.35l0 -38.25 -14.55 0 0 -12.93 14.55 0 0 -17.64 15.36 -3.5 0 21.15 9.14 0 0 12.93 -9.14 0 0 34.89c0,3.41 0.76,5.84 2.29,7.27 1.53,1.44 4.08,2.16 7.68,2.16 1.8,0 3.43,-0.14 4.92,-0.41 1.48,-0.27 3.12,-0.67 4.92,-1.21l0 12.8c-1.89,0.63 -4.08,1.12 -6.6,1.48 -2.51,0.36 -4.8,0.54 -6.87,0.54zm17.77 -1.21l0 -69.23 15.36 0 0 8.48c2.24,-3.23 4.94,-5.7 8.08,-7.4 3.14,-1.71 6.73,-2.56 10.77,-2.56 3.05,0 5.43,0.4 7.14,1.21l0 13.74c-1.26,-0.54 -2.6,-0.94 -4.04,-1.21 -1.44,-0.27 -2.92,-0.4 -4.45,-0.4 -3.77,0 -7.18,0.99 -10.24,2.96 -3.05,1.97 -5.48,4.85 -7.27,8.62l0 45.8 -15.36 0zm65.85 1.21c-4.94,0 -9.32,-0.9 -13.13,-2.7 -3.82,-1.8 -6.8,-4.29 -8.96,-7.47 -2.15,-3.19 -3.23,-6.85 -3.23,-10.98 0,-6.55 2.49,-11.69 7.47,-15.42 4.99,-3.73 11.83,-5.59 20.54,-5.59 6.47,0 12.53,1.17 18.18,3.5l0 -6.46c0,-4.58 -1.35,-8.02 -4.04,-10.3 -2.69,-2.29 -6.69,-3.44 -11.99,-3.44 -3.05,0 -6.29,0.47 -9.7,1.41 -3.41,0.94 -7.27,2.4 -11.58,4.38l-5.66 -11.45c5.3,-2.52 10.33,-4.36 15.09,-5.52 4.76,-1.17 9.52,-1.75 14.28,-1.75 9.07,0 16.12,2.18 21.15,6.53 5.03,4.36 7.54,10.53 7.54,18.52l0 45.53 -15.09 0 0 -5.52c-2.96,2.34 -6.17,4.04 -9.63,5.12 -3.46,1.08 -7.21,1.62 -11.25,1.62zm-10.64 -21.42c0,3.05 1.32,5.5 3.97,7.34 2.65,1.84 6.13,2.76 10.44,2.76 3.32,0 6.42,-0.45 9.29,-1.35 2.87,-0.9 5.48,-2.38 7.81,-4.44l0 -11.04c-2.51,-1.26 -5.1,-2.18 -7.74,-2.76 -2.65,-0.59 -5.59,-0.88 -8.82,-0.88 -4.58,0 -8.22,0.92 -10.91,2.76 -2.7,1.84 -4.04,4.38 -4.04,7.61zm55.88 31.94l0.14 -80.83 15.09 -0.14 0 6.33c5.75,-4.85 12.62,-7.27 20.61,-7.27 6.56,0 12.46,1.59 17.71,4.78 5.25,3.19 9.45,7.45 12.59,12.8 3.14,5.34 4.71,11.38 4.71,18.12 0,6.55 -1.57,12.55 -4.71,17.98 -3.14,5.43 -7.39,9.72 -12.73,12.86 -5.34,3.14 -11.33,4.71 -17.98,4.71 -3.68,0 -7.21,-0.56 -10.57,-1.68 -3.37,-1.12 -6.53,-2.71 -9.5,-4.78l0 17.12 -15.36 0zm33.54 -23.99c4.22,0 7.99,-0.97 11.32,-2.89 3.32,-1.93 5.97,-4.58 7.95,-7.95 1.97,-3.37 2.96,-7.16 2.96,-11.38 0,-4.31 -0.97,-8.17 -2.9,-11.59 -1.93,-3.41 -4.58,-6.08 -7.95,-8.01 -3.37,-1.93 -7.16,-2.9 -11.38,-2.9 -3.68,0 -7.07,0.67 -10.17,2.02 -3.1,1.35 -5.77,3.23 -8.01,5.66l0 29.5c2.15,2.33 4.83,4.2 8.01,5.59 3.19,1.39 6.58,2.04 10.17,1.95z"/>
  </g>
 </g>
</svg>
