<?xml version="1.0" encoding="UTF-8"?>
<!DOCTYPE svg PUBLIC "-//W3C//DTD SVG 1.1//EN" "http://www.w3.org/Graphics/SVG/1.1/DTD/svg11.dtd">
<!-- Creator: CorelDRAW 2020 (64-Bit) -->
<svg xmlns="http://www.w3.org/2000/svg" xml:space="preserve" width="0.871965in" height="0.665394in" version="1.1" style="shape-rendering:geometricPrecision; text-rendering:geometricPrecision; image-rendering:optimizeQuality; fill-rule:evenodd; clip-rule:evenodd"
viewBox="0 0 225.48 172.07"
 xmlns:xlink="http://www.w3.org/1999/xlink"
 xmlns:xodm="http://www.corel.com/coreldraw/odm/2003">
 <defs>
  <style type="text/css">
   <![CDATA[
    .fil0 {fill:#FEFEFE}
    .fil1 {fill:#261EBD}
    .fil2 {fill:#FEFEFE;fill-rule:nonzero}
   ]]>
  </style>
 </defs>
 <g id="Layer_x0020_1">
  <metadata id="CorelCorpID_0Corel-Layer"/>
  <g id="_2410349426448">
   <g>
    <polygon class="fil0" points="67.31,0 158.17,0 158.17,85.63 139.54,101.12 67.31,101.12 "/>
    <path class="fil1" d="M88.76 15.93l35.98 -0.22 12.58 12.33 -0.06 36.2 -33.15 0.06 -0.05 25.39 -15.69 -15.47 0.39 -58.3zm37.55 15.55l6.21 0.06 0.06 24.57 -6.28 -6.16 0.01 -18.47zm-21.93 22.01l18.79 0 5.81 6.28 -24.6 0 0 -6.28zm-0.21 -22.08l17.35 0 0 17.4 -17.35 0 0 -17.4zm18.89 -10.76l-25.96 0.09 6.02 6.29 26.08 -0.02 -6.14 -6.36zm-29.73 3.43l0.09 47.9 6.29 6.54 -0.02 -48.39 -6.36 -6.05z"/>
   </g>
   <path class="fil2" d="M-0 161.6l0 -36.53 14.64 0c2.4,0 4.51,0.47 6.31,1.41 1.81,0.94 3.23,2.24 4.25,3.91 1.03,1.67 1.54,3.6 1.54,5.79 0,2.16 -0.51,4.07 -1.54,5.74 -1.03,1.67 -2.45,2.97 -4.28,3.91 -1.83,0.94 -3.92,1.41 -6.29,1.41l-8.33 0 0 14.35 -6.31 0zm6.31 -19.62l7.7 0c1.95,0 3.5,-0.52 4.64,-1.56 1.15,-1.04 1.72,-2.44 1.72,-4.17 0,-1.74 -0.57,-3.12 -1.72,-4.15 -1.15,-1.03 -2.7,-1.54 -4.64,-1.54l-7.7 0 0 11.43zm32.24 19.39c-1.91,0 -3.61,-0.35 -5.09,-1.04 -1.48,-0.7 -2.63,-1.66 -3.47,-2.9 -0.83,-1.23 -1.25,-2.65 -1.25,-4.25 0,-2.54 0.97,-4.53 2.9,-5.98 1.93,-1.44 4.58,-2.17 7.96,-2.17 2.51,0 4.85,0.45 7.04,1.36l0 -2.5c0,-1.77 -0.52,-3.11 -1.56,-3.99 -1.04,-0.89 -2.59,-1.33 -4.64,-1.33 -1.18,0 -2.43,0.18 -3.76,0.55 -1.32,0.37 -2.82,0.93 -4.49,1.7l-2.19 -4.44c2.05,-0.97 4,-1.69 5.84,-2.14 1.84,-0.45 3.69,-0.68 5.53,-0.68 3.51,0 6.24,0.84 8.19,2.53 1.95,1.69 2.92,4.08 2.92,7.17l0 17.64 -5.84 0 0 -2.14c-1.15,0.9 -2.39,1.56 -3.73,1.98 -1.34,0.42 -2.79,0.63 -4.36,0.63zm-4.12 -8.3c0,1.18 0.51,2.13 1.54,2.84 1.03,0.71 2.37,1.07 4.04,1.07 1.29,0 2.49,-0.17 3.6,-0.52 1.11,-0.35 2.12,-0.92 3.03,-1.72l0 -4.28c-0.97,-0.49 -1.97,-0.84 -3,-1.07 -1.03,-0.23 -2.17,-0.34 -3.42,-0.34 -1.77,0 -3.18,0.36 -4.23,1.07 -1.04,0.71 -1.57,1.7 -1.57,2.95zm35.01 18.99c-2.02,0 -3.96,-0.23 -5.82,-0.68 -1.86,-0.45 -3.57,-1.08 -5.14,-1.88l2.19 -4.64c1.53,0.77 2.99,1.33 4.38,1.7 1.39,0.37 2.8,0.55 4.23,0.55 2.26,0 3.97,-0.5 5.11,-1.51 1.15,-1.01 1.72,-2.5 1.72,-4.49l0 -2.71c-2.3,1.77 -4.89,2.66 -7.77,2.66 -2.47,0 -4.73,-0.6 -6.78,-1.8 -2.05,-1.2 -3.68,-2.85 -4.88,-4.96 -1.2,-2.11 -1.8,-4.41 -1.8,-6.91 0,-2.57 0.61,-4.9 1.83,-6.97 1.22,-2.07 2.85,-3.7 4.91,-4.91 2.05,-1.2 4.37,-1.82 6.94,-1.85 1.39,0.03 2.75,0.26 4.07,0.68 1.32,0.42 2.52,1.03 3.6,1.83l0 -2.04 5.9 -0.05 0 27.03c-0.04,3.55 -1.14,6.26 -3.31,8.14 -2.17,1.88 -5.3,2.82 -9.37,2.82zm-0.26 -16.12c1.43,0.03 2.74,-0.2 3.94,-0.7 1.2,-0.5 2.2,-1.23 3,-2.17l0 -11.43c-0.8,-0.87 -1.81,-1.57 -3.03,-2.09 -1.22,-0.52 -2.5,-0.76 -3.86,-0.73 -1.64,-0.03 -3.09,0.33 -4.36,1.1 -1.27,0.77 -2.28,1.79 -3.03,3.08 -0.75,1.29 -1.12,2.73 -1.12,4.33 0,1.64 0.37,3.11 1.12,4.41 0.75,1.3 1.76,2.34 3.05,3.11 1.29,0.76 2.71,1.13 4.28,1.1zm29.63 5.43c-2.64,0 -5.04,-0.61 -7.18,-1.83 -2.14,-1.22 -3.84,-2.88 -5.09,-4.98 -1.25,-2.1 -1.88,-4.46 -1.88,-7.07 0,-2.57 0.6,-4.91 1.8,-6.99 1.2,-2.09 2.83,-3.75 4.88,-4.98 2.05,-1.23 4.35,-1.85 6.89,-1.85 2.5,0 4.74,0.62 6.71,1.85 1.96,1.23 3.52,2.92 4.67,5.06 1.15,2.14 1.72,4.57 1.72,7.28l0 1.62 -20.66 0c0.31,1.32 0.85,2.5 1.62,3.52 0.77,1.03 1.74,1.83 2.92,2.43 1.18,0.59 2.49,0.89 3.91,0.89 1.25,0 2.44,-0.19 3.57,-0.57 1.13,-0.38 2.08,-0.94 2.84,-1.67l3.86 3.65c-1.6,1.25 -3.24,2.17 -4.93,2.77 -1.69,0.59 -3.58,0.89 -5.66,0.89zm-8.14 -16.28l14.77 0c-0.24,-1.25 -0.72,-2.36 -1.43,-3.34 -0.71,-0.97 -1.57,-1.74 -2.58,-2.3 -1.01,-0.56 -2.12,-0.83 -3.34,-0.83 -1.22,0 -2.34,0.27 -3.37,0.81 -1.03,0.54 -1.9,1.29 -2.61,2.27 -0.71,0.97 -1.19,2.1 -1.44,3.39zm32.97 16.33c-2.36,0 -4.57,-0.33 -6.63,-0.99 -2.05,-0.66 -3.83,-1.62 -5.32,-2.87l3.08 -3.97c1.46,1.08 2.91,1.9 4.36,2.45 1.44,0.56 2.9,0.83 4.36,0.83 1.77,0 3.21,-0.33 4.31,-0.99 1.1,-0.66 1.64,-1.51 1.64,-2.56 0,-0.87 -0.31,-1.56 -0.94,-2.06 -0.63,-0.5 -1.62,-0.86 -2.97,-1.07l-4.96 -0.68c-2.68,-0.42 -4.7,-1.27 -6.05,-2.56 -1.36,-1.29 -2.03,-2.99 -2.03,-5.11 0,-1.67 0.44,-3.12 1.33,-4.36 0.89,-1.23 2.14,-2.19 3.76,-2.87 1.62,-0.68 3.52,-1.02 5.71,-1.02 1.95,0 3.83,0.28 5.64,0.84 1.81,0.56 3.55,1.41 5.22,2.56l-2.97 3.91c-1.46,-0.94 -2.88,-1.63 -4.25,-2.06 -1.37,-0.43 -2.76,-0.65 -4.15,-0.65 -1.46,0 -2.64,0.3 -3.55,0.89 -0.91,0.59 -1.36,1.37 -1.36,2.35 0,0.9 0.31,1.59 0.94,2.06 0.63,0.47 1.67,0.81 3.13,1.02l5.01 0.73c2.64,0.38 4.66,1.22 6.05,2.5 1.39,1.29 2.09,2.97 2.09,5.06 0,1.64 -0.5,3.1 -1.51,4.41 -1.01,1.3 -2.37,2.33 -4.07,3.08 -1.7,0.75 -3.65,1.12 -5.84,1.12zm24.47 -0.05c-2.75,0 -4.83,-0.64 -6.26,-1.9 -1.43,-1.27 -2.14,-3.12 -2.14,-5.56l0 -14.82 -5.64 0 0 -5.01 5.64 0 0 -6.84 5.95 -1.36 0 8.19 3.54 0 0 5.01 -3.54 0 0 13.52c0,1.32 0.3,2.26 0.89,2.82 0.59,0.56 1.58,0.83 2.97,0.83 0.7,0 1.33,-0.05 1.9,-0.16 0.57,-0.1 1.21,-0.26 1.9,-0.47l0 4.96c-0.73,0.24 -1.58,0.43 -2.56,0.57 -0.97,0.14 -1.86,0.21 -2.66,0.21zm6.88 -0.47l0 -26.82 5.95 0 0 3.29c0.87,-1.25 1.91,-2.21 3.13,-2.87 1.22,-0.66 2.61,-0.99 4.17,-0.99 1.18,0 2.1,0.16 2.77,0.47l0 5.32c-0.49,-0.21 -1.01,-0.37 -1.57,-0.47 -0.56,-0.1 -1.13,-0.16 -1.72,-0.16 -1.46,0 -2.78,0.38 -3.97,1.15 -1.18,0.76 -2.12,1.88 -2.82,3.34l0 17.74 -5.95 0zm25.51 0.47c-1.91,0 -3.61,-0.35 -5.09,-1.04 -1.48,-0.7 -2.63,-1.66 -3.47,-2.9 -0.83,-1.23 -1.25,-2.65 -1.25,-4.25 0,-2.54 0.97,-4.53 2.9,-5.98 1.93,-1.44 4.58,-2.17 7.96,-2.17 2.51,0 4.85,0.45 7.04,1.36l0 -2.5c0,-1.77 -0.52,-3.11 -1.56,-3.99 -1.04,-0.89 -2.59,-1.33 -4.64,-1.33 -1.18,0 -2.44,0.18 -3.76,0.55 -1.32,0.37 -2.82,0.93 -4.49,1.7l-2.19 -4.44c2.05,-0.97 4,-1.69 5.84,-2.14 1.84,-0.45 3.69,-0.68 5.53,-0.68 3.51,0 6.24,0.84 8.19,2.53 1.95,1.69 2.92,4.08 2.92,7.17l0 17.64 -5.84 0 0 -2.14c-1.15,0.9 -2.39,1.56 -3.73,1.98 -1.34,0.42 -2.79,0.63 -4.36,0.63zm-4.12 -8.3c0,1.18 0.51,2.13 1.54,2.84 1.03,0.71 2.37,1.07 4.04,1.07 1.29,0 2.49,-0.17 3.6,-0.52 1.11,-0.35 2.12,-0.92 3.03,-1.72l0 -4.28c-0.97,-0.49 -1.97,-0.84 -3,-1.07 -1.03,-0.23 -2.17,-0.34 -3.42,-0.34 -1.77,0 -3.18,0.36 -4.23,1.07 -1.04,0.71 -1.57,1.7 -1.57,2.95zm21.65 12.37l0.05 -31.31 5.84 -0.05 0 2.45c2.23,-1.88 4.89,-2.82 7.98,-2.82 2.54,0 4.83,0.62 6.86,1.85 2.04,1.23 3.66,2.89 4.88,4.96 1.22,2.07 1.83,4.41 1.83,7.02 0,2.54 -0.61,4.86 -1.83,6.97 -1.22,2.11 -2.86,3.77 -4.93,4.98 -2.07,1.22 -4.39,1.83 -6.97,1.83 -1.43,0 -2.79,-0.22 -4.1,-0.65 -1.3,-0.43 -2.53,-1.05 -3.68,-1.85l0 6.63 -5.95 0zm12.99 -9.29c1.64,0 3.1,-0.37 4.38,-1.12 1.29,-0.75 2.31,-1.77 3.08,-3.08 0.76,-1.3 1.15,-2.77 1.15,-4.41 0,-1.67 -0.37,-3.17 -1.12,-4.49 -0.75,-1.32 -1.77,-2.36 -3.08,-3.11 -1.3,-0.75 -2.77,-1.12 -4.41,-1.12 -1.43,0 -2.74,0.26 -3.94,0.78 -1.2,0.52 -2.23,1.25 -3.1,2.19l0 11.43c0.83,0.9 1.87,1.63 3.1,2.17 1.23,0.54 2.55,0.79 3.94,0.76z"/>
  </g>
 </g>
</svg>
