<?xml version="1.0" encoding="UTF-8"?>
<!DOCTYPE svg PUBLIC "-//W3C//DTD SVG 1.1//EN" "http://www.w3.org/Graphics/SVG/1.1/DTD/svg11.dtd">
<!-- Creator: CorelDRAW 2020 (64-Bit) -->
<svg xmlns="http://www.w3.org/2000/svg" xml:space="preserve" width="0.871965in" height="0.665394in" version="1.1" style="shape-rendering:geometricPrecision; text-rendering:geometricPrecision; image-rendering:optimizeQuality; fill-rule:evenodd; clip-rule:evenodd"
viewBox="0 0 467.02 356.38"
 xmlns:xlink="http://www.w3.org/1999/xlink"
 xmlns:xodm="http://www.corel.com/coreldraw/odm/2003">
 <defs>
  <style type="text/css">
   <![CDATA[
    .fil1 {fill:#FEFEFE}
    .fil0 {fill:#261EBD}
    .fil2 {fill:#261EBD;fill-rule:nonzero}
   ]]>
  </style>
 </defs>
 <g id="Layer_x0020_1">
  <metadata id="CorelCorpID_0Corel-Layer"/>
  <g id="_2410494273920">
   <g>
    <polygon class="fil0" points="139.42,0 327.6,0 327.6,177.36 289.02,209.44 139.42,209.44 "/>
    <path class="fil1" d="M183.83 33l74.52 -0.46 26.06 25.54 -0.12 74.98 -68.67 0.13 -0.1 52.6 -32.5 -32.04 0.81 -120.75zm77.77 32.21l12.86 0.12 0.12 50.9 -13 -12.77 0.03 -38.25zm-45.41 45.59l38.91 0 12.04 13 -50.96 0 0 -13zm-0.44 -45.73l35.92 0 0 36.04 -35.92 0 0 -36.04zm39.12 -22.29l-53.76 0.18 12.47 13.03 54.01 -0.03 -12.72 -13.18zm-61.58 7.1l0.18 99.2 13.03 13.55 -0.03 -100.23 -13.18 -12.53z"/>
   </g>
   <path class="fil2" d="M-0 334.69l0 -75.65 30.32 0c4.97,0 9.33,0.97 13.08,2.92 3.75,1.95 6.68,4.65 8.81,8.11 2.13,3.46 3.19,7.46 3.19,12 0,4.47 -1.06,8.43 -3.19,11.89 -2.13,3.46 -5.08,6.16 -8.86,8.11 -3.78,1.95 -8.12,2.92 -13.02,2.92l-17.24 0 0 29.72 -13.08 0zm13.08 -40.64l15.95 0c4.03,0 7.24,-1.08 9.62,-3.24 2.38,-2.16 3.57,-5.04 3.57,-8.65 0,-3.6 -1.19,-6.47 -3.57,-8.59 -2.38,-2.13 -5.58,-3.19 -9.62,-3.19l-15.95 0 0 23.67zm66.77 40.17c-3.96,0 -7.48,-0.72 -10.54,-2.16 -3.06,-1.44 -5.46,-3.44 -7.19,-6 -1.73,-2.56 -2.6,-5.5 -2.6,-8.81 0,-5.26 2,-9.39 6,-12.38 4,-2.99 9.49,-4.49 16.48,-4.49 5.19,0 10.05,0.94 14.59,2.81l0 -5.19c0,-3.68 -1.08,-6.43 -3.24,-8.27 -2.16,-1.84 -5.37,-2.76 -9.62,-2.76 -2.45,0 -5.04,0.38 -7.78,1.13 -2.74,0.76 -5.84,1.93 -9.29,3.51l-4.54 -9.19c4.25,-2.02 8.28,-3.49 12.1,-4.43 3.82,-0.94 7.64,-1.4 11.46,-1.4 7.28,0 12.93,1.75 16.97,5.24 4.04,3.49 6.05,8.45 6.05,14.86l0 36.53 -12.11 0 0 -4.43c-2.38,1.87 -4.95,3.24 -7.73,4.11 -2.77,0.86 -5.78,1.3 -9.02,1.3zm-8.54 -17.19c0,2.45 1.06,4.41 3.19,5.89 2.13,1.48 4.92,2.22 8.38,2.22 2.67,0 5.15,-0.36 7.46,-1.08 2.3,-0.72 4.39,-1.91 6.27,-3.57l0 -8.86c-2.02,-1.01 -4.09,-1.75 -6.21,-2.21 -2.13,-0.47 -4.49,-0.7 -7.08,-0.7 -3.67,0 -6.59,0.74 -8.75,2.21 -2.16,1.48 -3.24,3.51 -3.24,6.11zm72.51 39.34c-4.18,0 -8.2,-0.47 -12.05,-1.41 -3.85,-0.94 -7.4,-2.23 -10.64,-3.89l4.54 -9.62c3.17,1.59 6.2,2.76 9.08,3.51 2.88,0.76 5.8,1.13 8.75,1.13 4.68,0 8.21,-1.04 10.59,-3.13 2.38,-2.09 3.57,-5.19 3.57,-9.29l0 -5.62c-4.75,3.68 -10.12,5.51 -16.1,5.51 -5.12,0 -9.8,-1.24 -14.05,-3.73 -4.25,-2.48 -7.62,-5.91 -10.11,-10.26 -2.48,-4.36 -3.73,-9.13 -3.73,-14.32 0,-5.33 1.26,-10.14 3.78,-14.43 2.52,-4.29 5.91,-7.67 10.16,-10.16 4.25,-2.48 9.04,-3.76 14.37,-3.84 2.88,0.07 5.69,0.54 8.43,1.4 2.74,0.86 5.22,2.13 7.46,3.78l0 -4.22 12.21 -0.11 0 55.98c-0.07,7.35 -2.36,12.97 -6.86,16.86 -4.5,3.89 -10.97,5.84 -19.4,5.84zm-0.54 -33.4c2.95,0.07 5.67,-0.41 8.16,-1.46 2.48,-1.04 4.55,-2.54 6.21,-4.49l0 -23.67c-1.66,-1.8 -3.75,-3.24 -6.27,-4.32 -2.52,-1.08 -5.19,-1.58 -8,-1.51 -3.39,-0.07 -6.4,0.68 -9.02,2.27 -2.63,1.59 -4.72,3.71 -6.27,6.38 -1.55,2.67 -2.32,5.66 -2.32,8.97 0,3.39 0.77,6.43 2.32,9.13 1.55,2.7 3.65,4.85 6.32,6.43 2.67,1.58 5.62,2.34 8.86,2.27zm61.38 11.24c-5.48,0 -10.43,-1.26 -14.86,-3.78 -4.43,-2.52 -7.94,-5.96 -10.54,-10.32 -2.59,-4.36 -3.89,-9.24 -3.89,-14.64 0,-5.33 1.24,-10.16 3.73,-14.48 2.49,-4.32 5.85,-7.76 10.1,-10.32 4.25,-2.56 9.01,-3.84 14.27,-3.84 5.19,0 9.82,1.28 13.89,3.84 4.07,2.56 7.29,6.05 9.67,10.48 2.38,4.43 3.57,9.46 3.57,15.08l0 3.35 -42.8 0c0.65,2.74 1.76,5.17 3.35,7.29 1.59,2.13 3.6,3.8 6.05,5.03 2.45,1.22 5.15,1.84 8.11,1.84 2.59,0 5.06,-0.4 7.4,-1.19 2.34,-0.79 4.3,-1.95 5.89,-3.46l8 7.57c-3.31,2.59 -6.72,4.5 -10.21,5.73 -3.5,1.23 -7.41,1.84 -11.73,1.84zm-16.86 -33.72l30.58 0c-0.5,-2.59 -1.49,-4.9 -2.97,-6.92 -1.48,-2.02 -3.26,-3.6 -5.35,-4.75 -2.09,-1.15 -4.39,-1.73 -6.92,-1.73 -2.52,0 -4.85,0.56 -6.97,1.68 -2.13,1.12 -3.93,2.68 -5.4,4.7 -1.48,2.02 -2.47,4.36 -2.97,7.02zm68.29 33.83c-4.9,0 -9.47,-0.69 -13.73,-2.05 -4.25,-1.37 -7.93,-3.35 -11.02,-5.94l6.38 -8.22c3.03,2.24 6.03,3.93 9.02,5.08 2.99,1.15 6,1.73 9.02,1.73 3.68,0 6.65,-0.69 8.92,-2.05 2.27,-1.37 3.4,-3.13 3.4,-5.3 0,-1.8 -0.65,-3.22 -1.94,-4.27 -1.3,-1.05 -3.35,-1.78 -6.16,-2.22l-10.27 -1.4c-5.55,-0.86 -9.73,-2.63 -12.54,-5.29 -2.81,-2.67 -4.21,-6.2 -4.21,-10.59 0,-3.46 0.92,-6.47 2.76,-9.02 1.84,-2.56 4.43,-4.54 7.78,-5.94 3.35,-1.41 7.3,-2.11 11.83,-2.11 4.04,0 7.93,0.58 11.67,1.73 3.75,1.15 7.35,2.92 10.81,5.29l-6.16 8.11c-3.03,-1.94 -5.96,-3.37 -8.81,-4.27 -2.84,-0.9 -5.71,-1.35 -8.59,-1.35 -3.03,0 -5.48,0.61 -7.35,1.84 -1.87,1.23 -2.81,2.85 -2.81,4.86 0,1.87 0.65,3.3 1.94,4.27 1.3,0.97 3.46,1.67 6.49,2.11l10.37 1.51c5.48,0.79 9.65,2.52 12.54,5.19 2.88,2.67 4.32,6.16 4.32,10.48 0,3.39 -1.04,6.43 -3.13,9.13 -2.09,2.7 -4.9,4.83 -8.43,6.38 -3.53,1.55 -7.56,2.32 -12.1,2.32zm50.68 -0.11c-5.69,0 -10.01,-1.32 -12.97,-3.95 -2.95,-2.63 -4.43,-6.47 -4.43,-11.51l0 -30.69 -11.67 0 0 -10.37 11.67 0 0 -14.16 12.32 -2.81 0 16.97 7.34 0 0 10.37 -7.34 0 0 27.99c0,2.74 0.61,4.68 1.84,5.84 1.23,1.15 3.28,1.73 6.16,1.73 1.44,0 2.76,-0.11 3.95,-0.32 1.19,-0.22 2.51,-0.54 3.95,-0.97l0 10.27c-1.51,0.5 -3.28,0.9 -5.29,1.19 -2.02,0.29 -3.86,0.43 -5.51,0.43zm14.26 -0.97l0 -55.55 12.32 0 0 6.81c1.8,-2.59 3.96,-4.58 6.48,-5.94 2.52,-1.37 5.4,-2.05 8.65,-2.05 2.45,0 4.36,0.32 5.73,0.97l0 11.02c-1.01,-0.43 -2.09,-0.76 -3.24,-0.97 -1.15,-0.22 -2.34,-0.32 -3.57,-0.32 -3.02,0 -5.76,0.79 -8.21,2.38 -2.45,1.58 -4.39,3.89 -5.83,6.92l0 36.74 -12.32 0zm52.84 0.97c-3.96,0 -7.48,-0.72 -10.54,-2.16 -3.06,-1.44 -5.46,-3.44 -7.19,-6 -1.73,-2.56 -2.6,-5.5 -2.6,-8.81 0,-5.26 2,-9.39 6,-12.38 4,-2.99 9.49,-4.49 16.48,-4.49 5.19,0 10.05,0.94 14.59,2.81l0 -5.19c0,-3.68 -1.08,-6.43 -3.24,-8.27 -2.16,-1.84 -5.37,-2.76 -9.62,-2.76 -2.45,0 -5.04,0.38 -7.78,1.13 -2.74,0.76 -5.84,1.93 -9.29,3.51l-4.54 -9.19c4.25,-2.02 8.28,-3.49 12.1,-4.43 3.82,-0.94 7.64,-1.4 11.46,-1.4 7.28,0 12.93,1.75 16.97,5.24 4.04,3.49 6.05,8.45 6.05,14.86l0 36.53 -12.11 0 0 -4.43c-2.38,1.87 -4.95,3.24 -7.73,4.11 -2.77,0.86 -5.78,1.3 -9.02,1.3zm-8.54 -17.19c0,2.45 1.06,4.41 3.19,5.89 2.13,1.48 4.92,2.22 8.38,2.22 2.67,0 5.15,-0.36 7.46,-1.08 2.3,-0.72 4.39,-1.91 6.27,-3.57l0 -8.86c-2.02,-1.01 -4.09,-1.75 -6.21,-2.21 -2.13,-0.47 -4.49,-0.7 -7.08,-0.7 -3.67,0 -6.59,0.74 -8.75,2.21 -2.16,1.48 -3.24,3.51 -3.24,6.11zm44.84 25.63l0.11 -64.86 12.11 -0.11 0 5.08c4.61,-3.89 10.12,-5.84 16.53,-5.84 5.26,0 10,1.28 14.21,3.84 4.22,2.56 7.58,5.98 10.1,10.27 2.52,4.29 3.78,9.13 3.78,14.53 0,5.26 -1.26,10.07 -3.78,14.43 -2.52,4.36 -5.93,7.8 -10.21,10.32 -4.29,2.52 -9.1,3.78 -14.43,3.78 -2.95,0 -5.78,-0.45 -8.49,-1.35 -2.7,-0.9 -5.24,-2.18 -7.62,-3.84l0 13.74 -12.32 0zm26.91 -19.25c3.39,0 6.41,-0.78 9.08,-2.32 2.67,-1.55 4.79,-3.67 6.38,-6.38 1.58,-2.7 2.38,-5.75 2.38,-9.13 0,-3.46 -0.77,-6.56 -2.32,-9.29 -1.55,-2.74 -3.67,-4.88 -6.38,-6.43 -2.7,-1.55 -5.75,-2.32 -9.13,-2.32 -2.95,0 -5.67,0.54 -8.16,1.62 -2.48,1.08 -4.63,2.59 -6.43,4.54l0 23.67c1.73,1.87 3.87,3.37 6.43,4.49 2.56,1.12 5.28,1.64 8.16,1.57z"/>
  </g>
 </g>
</svg>
