<?xml version="1.0" encoding="UTF-8"?>
<!DOCTYPE svg PUBLIC "-//W3C//DTD SVG 1.1//EN" "http://www.w3.org/Graphics/SVG/1.1/DTD/svg11.dtd">
<!-- Creator: CorelDRAW 2020 (64-Bit) -->
<svg xmlns="http://www.w3.org/2000/svg" xml:space="preserve" width="0.445272in" height="0.495571in" version="1.1" style="shape-rendering:geometricPrecision; text-rendering:geometricPrecision; image-rendering:optimizeQuality; fill-rule:evenodd; clip-rule:evenodd"
viewBox="0 0 96.49 107.39"
 xmlns:xlink="http://www.w3.org/1999/xlink"
 xmlns:xodm="http://www.corel.com/coreldraw/odm/2003">
 <defs>
  <style type="text/css">
   <![CDATA[
    .fil0 {fill:#FEFEFE}
    .fil1 {fill:#261EBD}
   ]]>
  </style>
 </defs>
 <g id="Layer_x0020_1">
  <metadata id="CorelCorpID_0Corel-Layer"/>
  <g id="_2410501301232">
   <g>
    <polygon class="fil0" points="-0,0 96.49,0 96.49,90.95 76.71,107.39 -0,107.39 "/>
    <path class="fil1" d="M22.77 16.92l38.21 -0.24 13.36 13.09 -0.06 38.45 -35.21 0.07 -0.05 26.97 -16.66 -16.43 0.41 -61.92zm39.88 16.52l6.59 0.06 0.06 26.1 -6.67 -6.55 0.01 -19.61zm-23.29 23.38l19.95 0 6.18 6.67 -26.13 0 0 -6.67zm-0.22 -23.45l18.42 0 0 18.48 -18.42 0 0 -18.48zm20.06 -11.43l-27.57 0.09 6.39 6.68 27.69 -0.02 -6.52 -6.76zm-31.58 3.64l0.09 50.87 6.68 6.95 -0.02 -51.4 -6.76 -6.42z"/>
   </g>
  </g>
 </g>
</svg>
