<?xml version="1.0" encoding="UTF-8"?>
<!DOCTYPE svg PUBLIC "-//W3C//DTD SVG 1.1//EN" "http://www.w3.org/Graphics/SVG/1.1/DTD/svg11.dtd">
<!-- Creator: CorelDRAW 2020 (64-Bit) -->
<svg xmlns="http://www.w3.org/2000/svg" xml:space="preserve" width="0.445272in" height="0.495571in" version="1.1" style="shape-rendering:geometricPrecision; text-rendering:geometricPrecision; image-rendering:optimizeQuality; fill-rule:evenodd; clip-rule:evenodd"
viewBox="0 0 67.32 74.92"
 xmlns:xlink="http://www.w3.org/1999/xlink"
 xmlns:xodm="http://www.corel.com/coreldraw/odm/2003">
 <defs>
  <style type="text/css">
   <![CDATA[
    .fil1 {fill:#FEFEFE}
    .fil0 {fill:#261EBD}
   ]]>
  </style>
 </defs>
 <g id="Layer_x0020_1">
  <metadata id="CorelCorpID_0Corel-Layer"/>
  <g id="_2410501273920">
   <g>
    <polygon class="fil0" points="-0,0 67.32,0 67.32,63.45 53.51,74.92 -0,74.92 "/>
    <path class="fil1" d="M15.89 11.8l26.66 -0.17 9.32 9.14 -0.04 26.82 -24.56 0.05 -0.04 18.82 -11.63 -11.46 0.29 -43.19zm27.82 11.52l4.6 0.04 0.04 18.21 -4.65 -4.57 0.01 -13.68zm-16.25 16.31l13.92 0 4.31 4.65 -18.23 0 0 -4.65zm-0.16 -16.36l12.85 0 0 12.89 -12.85 0 0 -12.89zm13.99 -7.97l-19.23 0.06 4.46 4.66 19.32 -0.01 -4.55 -4.71zm-22.03 2.54l0.06 35.49 4.66 4.85 -0.01 -35.86 -4.71 -4.48z"/>
   </g>
  </g>
 </g>
</svg>
